<?xml version="1.0" ?><svg xmlns="http://www.w3.org/2000/svg" xmlns:xlink="http://www.w3.org/1999/xlink" version="1.1" id="Layer_1" viewBox="0 0 100 100" style="enable-background:new 0 0 100 100;" xml:space="preserve"><style type="text/css">
	.st0{fill:#48EDE5;}
	.st1{fill:#333333;}
</style><g><circle class="st0" cx="50" cy="50" r="5.7"/><g><path class="st1" d="M63.2,58.5l-1.6-2.3c0.4-0.7,0.7-1.4,0.9-2.2l2.8-0.5c0.5-0.1,0.9-0.5,0.9-1.1v-4.6c0-0.5-0.4-1-0.9-1.1    l-2.8-0.5c-0.2-0.8-0.5-1.5-0.9-2.2l1.6-2.3c0.3-0.4,0.2-1-0.1-1.4l-3.3-3.3c-0.4-0.4-0.9-0.4-1.4-0.1l-2.3,1.6    c-0.7-0.4-1.4-0.7-2.2-0.9l-0.5-2.8c-0.1-0.5-0.5-0.9-1.1-0.9h-4.6c-0.5,0-1,0.4-1.1,0.9l-0.5,2.8c-0.8,0.2-1.5,0.5-2.2,0.9    l-2.3-1.6c-0.4-0.3-1-0.2-1.4,0.1l-3.3,3.3c-0.4,0.4-0.4,0.9-0.1,1.4l1.6,2.3c-0.4,0.7-0.7,1.4-0.9,2.2l-2.8,0.5    c-0.5,0.1-0.9,0.5-0.9,1.1v4.6c0,0.5,0.4,1,0.9,1.1l2.8,0.5c0.2,0.8,0.5,1.5,0.9,2.2l-1.6,2.3c-0.3,0.4-0.2,1,0.1,1.4l3.3,3.3    c0.4,0.4,0.9,0.4,1.4,0.1l2.3-1.6c0.7,0.4,1.4,0.7,2.2,0.9l0.5,2.8c0.1,0.5,0.5,0.9,1.1,0.9h4.6c0.5,0,1-0.4,1.1-0.9l0.5-2.8    c0.8-0.2,1.5-0.5,2.2-0.9l2.3,1.6c0.4,0.3,1,0.2,1.4-0.1l3.3-3.3C63.5,59.5,63.5,58.9,63.2,58.5z M60.6,52.7c-0.3,1-0.7,2-1.2,2.9    c-0.2,0.4-0.2,0.8,0,1.2l1.5,2.2l-2,2l-2.2-1.5c-0.3-0.2-0.8-0.2-1.2,0c-0.9,0.5-1.9,0.9-2.9,1.2c-0.4,0.1-0.7,0.4-0.8,0.8    L51.4,64h-2.8l-0.5-2.6c-0.1-0.4-0.4-0.7-0.8-0.8c-1-0.3-2-0.7-2.9-1.2c-0.4-0.2-0.8-0.2-1.2,0l-2.2,1.5l-2-2l1.5-2.2    c0.2-0.3,0.2-0.8,0-1.2c-0.5-0.9-0.9-1.9-1.2-2.9c-0.1-0.4-0.4-0.7-0.8-0.8L36,51.4v-2.8l2.6-0.5c0.4-0.1,0.7-0.4,0.8-0.8    c0.3-1,0.7-2,1.2-2.9c0.2-0.4,0.2-0.8,0-1.2l-1.5-2.2l2-2l2.2,1.5c0.3,0.2,0.8,0.2,1.2,0c0.9-0.5,1.9-0.9,2.9-1.2    c0.4-0.1,0.7-0.4,0.8-0.8l0.5-2.6h2.8l0.5,2.6c0.1,0.4,0.4,0.7,0.8,0.8c1,0.3,2,0.7,2.9,1.2c0.4,0.2,0.8,0.2,1.2,0l2.2-1.5l2,2    l-1.5,2.2c-0.2,0.3-0.2,0.8,0,1.2c0.5,0.9,0.9,1.9,1.2,2.9c0.1,0.4,0.4,0.7,0.8,0.8l2.6,0.5v2.8l-2.6,0.5    C61.1,52,60.8,52.3,60.6,52.7z"/><path class="st1" d="M48.9,28.6v2.1c0,0.6,0.5,1.1,1.1,1.1s1.1-0.5,1.1-1.1v-2.1c2-0.5,3.4-2.2,3.4-4.4c0-2.5-2-4.5-4.5-4.5    s-4.5,2-4.5,4.5C45.5,26.4,47,28.1,48.9,28.6z M50,21.9c1.3,0,2.3,1,2.3,2.3s-1,2.3-2.3,2.3s-2.3-1-2.3-2.3S48.7,21.9,50,21.9z"/><path class="st1" d="M51.1,71.4v-2.1c0-0.6-0.5-1.1-1.1-1.1s-1.1,0.5-1.1,1.1v2.1c-2,0.5-3.4,2.2-3.4,4.4c0,2.5,2,4.5,4.5,4.5    s4.5-2,4.5-4.5C54.5,73.6,53,71.9,51.1,71.4z M50,78.1c-1.3,0-2.3-1-2.3-2.3s1-2.3,2.3-2.3s2.3,1,2.3,2.3S51.3,78.1,50,78.1z"/><path class="st1" d="M75.8,45.5c-2.1,0-3.9,1.5-4.4,3.4h-2.1c-0.6,0-1.1,0.5-1.1,1.1s0.5,1.1,1.1,1.1h2.1c0.5,2,2.2,3.4,4.4,3.4    c2.5,0,4.5-2,4.5-4.5S78.2,45.5,75.8,45.5z M75.8,52.3c-1.3,0-2.3-1-2.3-2.3s1-2.3,2.3-2.3s2.3,1,2.3,2.3S77,52.3,75.8,52.3z"/><path class="st1" d="M28.6,51.1h2.1c0.6,0,1.1-0.5,1.1-1.1s-0.5-1.1-1.1-1.1h-2.1c-0.5-2-2.2-3.4-4.4-3.4c-2.5,0-4.5,2-4.5,4.5    s2,4.5,4.5,4.5C26.4,54.5,28.1,53,28.6,51.1z M24.2,52.3c-1.3,0-2.3-1-2.3-2.3s1-2.3,2.3-2.3s2.3,1,2.3,2.3S25.5,52.3,24.2,52.3z"/><path class="st1" d="M63.7,37.4c0.3,0,0.6-0.1,0.8-0.3l1.5-1.5c0.7,0.4,1.5,0.7,2.3,0.7c1.2,0,2.3-0.4,3.2-1.3    c1.8-1.8,1.8-4.6,0-6.4c-1.8-1.8-4.6-1.8-6.4,0c-0.8,0.8-1.3,2-1.3,3.2c0,0.8,0.2,1.6,0.7,2.3l-1.5,1.5c-0.4,0.4-0.4,1.1,0,1.5    C63.1,37.3,63.4,37.4,63.7,37.4z M66.6,30.1c0.5-0.5,1.1-0.7,1.7-0.7s1.2,0.2,1.7,0.7c0.9,0.9,0.9,2.4,0,3.3    c-0.9,0.9-2.4,0.9-3.3,0c-0.4-0.4-0.7-1-0.7-1.7S66.1,30.6,66.6,30.1z"/><path class="st1" d="M35.6,62.9l-1.5,1.5c-1.7-1-4-0.8-5.5,0.7c-1.8,1.8-1.8,4.6,0,6.4c0.9,0.9,2,1.3,3.2,1.3s2.3-0.4,3.2-1.3    c1.5-1.5,1.7-3.8,0.7-5.5l1.5-1.5c0.4-0.4,0.4-1.1,0-1.5S36,62.5,35.6,62.9z M33.4,69.9c-0.9,0.9-2.4,0.9-3.3,0    c-0.9-0.9-0.9-2.4,0-3.3c0.5-0.5,1.1-0.7,1.7-0.7s1.2,0.2,1.7,0.7C34.4,67.5,34.4,68.9,33.4,69.9z"/><path class="st1" d="M65.9,64.4l-1.5-1.5c-0.4-0.4-1.1-0.4-1.5,0s-0.4,1.1,0,1.5l1.5,1.5c-0.4,0.7-0.7,1.5-0.7,2.3    c0,1.2,0.5,2.3,1.3,3.2c0.9,0.9,2,1.3,3.2,1.3s2.3-0.4,3.2-1.3c1.8-1.8,1.8-4.6,0-6.4C69.9,63.5,67.6,63.3,65.9,64.4z M69.9,69.9    c-0.9,0.9-2.4,0.9-3.3,0c-0.4-0.4-0.7-1-0.7-1.7c0-0.6,0.2-1.2,0.7-1.7c0.5-0.5,1.1-0.7,1.7-0.7s1.2,0.2,1.7,0.7    C70.8,67.5,70.8,68.9,69.9,69.9z"/><path class="st1" d="M31.8,36.3c0.8,0,1.6-0.2,2.3-0.7l1.5,1.5c0.2,0.2,0.5,0.3,0.8,0.3s0.6-0.1,0.8-0.3c0.4-0.4,0.4-1.1,0-1.5    l-1.5-1.5c1-1.7,0.8-4-0.7-5.5c-1.8-1.8-4.6-1.8-6.4,0c-1.8,1.8-1.8,4.6,0,6.4C29.5,35.8,30.6,36.3,31.8,36.3z M30.1,30.1    c0.5-0.5,1.1-0.7,1.7-0.7s1.2,0.2,1.7,0.7c0.9,0.9,0.9,2.4,0,3.3c-0.9,0.9-2.4,0.9-3.3,0C29.2,32.5,29.2,31.1,30.1,30.1z"/></g></g></svg>